REM DIRINDEX 1\6,1\2\7,1\2\8,1\2\9,1\3\10,1\3\11,1\4\12,1\4\13,1\4\14,1\5\15,1\5\16,1\5\17
REM DIRNAME cjc041,folder01,folder02,folder03,folder04,folder05,folder06,folder07,folder08,folder09,folder10,folder11,folder12,folder13,folder14,folder15,folder16
TITLE ""
FILE "3Q_t_0529-0544.mp3" MP3
  TRACK 01 AUDIO
    TITLE "10:cjc041_2666"
    INDEX 01 00:00:00
  TRACK 02 AUDIO
    TITLE "0:"
    INDEX 01 00:00:74
  TRACK 03 AUDIO
    TITLE "11:cjc041_2667"
    INDEX 01 00:01:58
  TRACK 04 AUDIO
    TITLE "0:"
    INDEX 01 00:03:10
  TRACK 05 AUDIO
    TITLE "10:cjc041_2668"
    INDEX 01 00:03:68
  TRACK 06 AUDIO
    TITLE "0:"
    INDEX 01 00:05:12
  TRACK 07 AUDIO
    TITLE "11:cjc041_2669"
    INDEX 01 00:05:63
  TRACK 08 AUDIO
    TITLE "0:"
    INDEX 01 00:07:05
  TRACK 09 AUDIO
    TITLE "10:cjc041_2670"
    INDEX 01 00:07:56
  TRACK 10 AUDIO
    TITLE "0:"
    INDEX 01 00:08:73
  TRACK 11 AUDIO
    TITLE "11:cjc041_2671"
    INDEX 01 00:09:49
  TRACK 12 AUDIO
    TITLE "0:"
    INDEX 01 00:10:68
  TRACK 13 AUDIO
    TITLE "10:cjc041_2672"
    INDEX 01 00:11:42
  TRACK 14 AUDIO
    TITLE "0:"
    INDEX 01 00:12:61
  TRACK 15 AUDIO
    TITLE "11:cjc041_2673"
    INDEX 01 00:13:33
  TRACK 16 AUDIO
    TITLE "0:"
    INDEX 01 00:16:12
  TRACK 17 AUDIO
    TITLE "10:cjc041_2674"
    INDEX 01 00:16:63
  TRACK 18 AUDIO
    TITLE "0:"
    INDEX 01 00:18:01
  TRACK 19 AUDIO
    TITLE "11:cjc041_2675"
    INDEX 01 00:18:46
  TRACK 20 AUDIO
    TITLE "0:"
    INDEX 01 00:19:69
  TRACK 21 AUDIO
    TITLE "10:cjc041_2676"
    INDEX 01 00:20:41
  TRACK 22 AUDIO
    TITLE "0:"
    INDEX 01 00:22:07
  TRACK 23 AUDIO
    TITLE "11:cjc041_2677"
    INDEX 01 00:22:58
  TRACK 24 AUDIO
    TITLE "0:"
    INDEX 01 00:23:69
  TRACK 25 AUDIO
    TITLE "10:cjc041_2678"
    INDEX 01 00:24:49
  TRACK 26 AUDIO
    TITLE "0:"
    INDEX 01 00:25:66
  TRACK 27 AUDIO
    TITLE "11:cjc041_2679"
    INDEX 01 00:26:44
  TRACK 28 AUDIO
    TITLE "0:"
    INDEX 01 00:27:43
  TRACK 29 AUDIO
    TITLE "10:cjc041_2680"
    INDEX 01 00:28:23
  TRACK 30 AUDIO
    TITLE "0:"
    INDEX 01 00:29:42
  TRACK 31 AUDIO
    TITLE "11:cjc041_2681"
    INDEX 01 00:30:20
  TRACK 32 AUDIO
    TITLE "0:"
    INDEX 01 00:37:59
  TRACK 33 AUDIO
    TITLE "10:cjc041_2682"
    INDEX 01 00:38:39
  TRACK 34 AUDIO
    TITLE "0:"
    INDEX 01 00:39:51
  TRACK 35 AUDIO
    TITLE "11:cjc041_2683"
    INDEX 01 00:40:28
  TRACK 36 AUDIO
    TITLE "0:"
    INDEX 01 00:42:72
  TRACK 37 AUDIO
    TITLE "10:cjc041_2684"
    INDEX 01 00:43:56
  TRACK 38 AUDIO
    TITLE "0:"
    INDEX 01 00:44:63
  TRACK 39 AUDIO
    TITLE "11:cjc041_2685"
    INDEX 01 00:45:43
  TRACK 40 AUDIO
    TITLE "0:"
    INDEX 01 00:46:70
  TRACK 41 AUDIO
    TITLE "10:cjc041_2686"
    INDEX 01 00:47:56
  TRACK 42 AUDIO
    TITLE "0:"
    INDEX 01 00:48:61
  TRACK 43 AUDIO
    TITLE "11:cjc041_2687"
    INDEX 01 00:49:45
  TRACK 44 AUDIO
    TITLE "0:"
    INDEX 01 00:51:62
  TRACK 45 AUDIO
    TITLE "10:cjc041_2688"
    INDEX 01 00:52:41
  TRACK 46 AUDIO
    TITLE "0:"
    INDEX 01 00:53:64
  TRACK 47 AUDIO
    TITLE "11:cjc041_2689"
    INDEX 01 00:54:40
  TRACK 48 AUDIO
    TITLE "0:"
    INDEX 01 00:56:10
  TRACK 49 AUDIO
    TITLE "10:cjc041_2690"
    INDEX 01 00:56:67
  TRACK 50 AUDIO
    TITLE "0:"
    INDEX 01 00:58:01
  TRACK 51 AUDIO
    TITLE "11:cjc041_2691"
    INDEX 01 00:58:50
  TRACK 52 AUDIO
    TITLE "0:"
    INDEX 01 01:00:19
  TRACK 53 AUDIO
    TITLE "10:cjc041_2692"
    INDEX 01 01:00:74
  TRACK 54 AUDIO
    TITLE "0:"
    INDEX 01 01:02:14
  TRACK 55 AUDIO
    TITLE "11:cjc041_2693"
    INDEX 01 01:02:67
  TRACK 56 AUDIO
    TITLE "0:"
    INDEX 01 01:04:11
  TRACK 57 AUDIO
    TITLE "10:cjc041_2694"
    INDEX 01 01:04:64
  TRACK 58 AUDIO
    TITLE "0:"
    INDEX 01 01:06:12
  TRACK 59 AUDIO
    TITLE "11:cjc041_2695"
    INDEX 01 01:06:59
  TRACK 60 AUDIO
    TITLE "0:"
    INDEX 01 01:09:22
  TRACK 61 AUDIO
    TITLE "10:cjc041_2696"
    INDEX 01 01:09:73
  TRACK 62 AUDIO
    TITLE "0:"
    INDEX 01 01:11:07
  TRACK 63 AUDIO
    TITLE "11:cjc041_2697"
    INDEX 01 01:11:60
  TRACK 64 AUDIO
    TITLE "0:"
    INDEX 01 01:13:10
